<?xml version="1.0" encoding="utf-8"?>
<!-- Generator: Adobe Illustrator 15.0.0, SVG Export Plug-In . SVG Version: 6.00 Build 0)  -->
<!DOCTYPE svg PUBLIC "-//W3C//DTD SVG 1.1 Tiny//EN" "http://www.w3.org/Graphics/SVG/1.1/DTD/svg11-tiny.dtd">
<svg version="1.1" baseProfile="tiny" id="Calque_1"
	 xmlns="http://www.w3.org/2000/svg" xmlns:xlink="http://www.w3.org/1999/xlink" x="0px" y="0px" width="2767.742px"
	 height="752.611px" viewBox="0 0 2767.742 752.611" xml:space="preserve">
<g>
	<path d="M1078.802,123.885l-8.387,248.547l194.416-247.022l77.767,51.844l-175.355,203.565l186.029,220.338l-97.589,60.993
		l-186.029-263.033l-1.524,56.418l9.149,198.228H970.539l9.149-185.267l-9.149-325.551L1078.802,123.885z"/>
	<path d="M1572.075,662.15c-45.744,0-84.246-13.974-115.506-41.933c-31.259-27.947-46.888-62.518-46.888-103.688l-7.625-373.583
		l109.788-19.061l-12.198,333.938c0,35.583,8.255,63.28,24.778,83.103c16.511,19.823,42.052,29.734,76.623,29.734
		c34.559,0,59.468-9.649,74.716-28.972c15.249-19.311,22.873-52.606,22.873-99.876l-9.149-298.867l106.738-19.061l-8.387,335.462
		c0,59.981-20.085,108.775-60.23,146.384C1687.45,643.352,1635.606,662.15,1572.075,662.15z"/>
	<path d="M1876.267,575.998l245.497-362.91l-248.547,16.773l18.298-105.213l173.831,8.387l174.593-9.149l-11.437,81.579
		l-246.26,364.434l267.607-16.773l-15.248,105.213l-183.742-8.387l-187.554,8.387L1876.267,575.998z"/>
	<path d="M2628.765,657.576l-37.358-148.671H2409.19l-40.408,144.859l-97.589-7.624l67.092-185.267l102.164-327.838l136.473-9.911
		l98.352,326.313l63.28,191.366L2628.765,657.576z M2508.303,222.237h-9.911l-65.567,205.852h135.71L2508.303,222.237z"/>
</g>
<g>
	<path d="M303.912,209.276H141.518l-4.575,140.284h145.622l-8.387,80.816H134.656l-0.762,25.16l9.149,198.228H36.304l9.149-185.267
		l-9.149-340.799h275.994L303.912,209.276z"/>
</g>
<g>
	<path stroke="#FFFFFF" stroke-width="5" stroke-miterlimit="10" d="M776.498,342.249c-15.396-17.977-32.609-35.73-51.314-52.875
		c-18.801-17.168-37.976-32.647-57.203-46.474c-31.911-22.873-63.88-40.761-94.002-53.347
		c-65.427-27.153-122.099-28.423-150.354,2.402l0,0c67.214-73.343,170.647-109.846,274.786-86.848
		c40.9,9.033,68.128,58.774,77.295,128.997C779.906,266.474,780.351,303.118,776.498,342.249z"/>
	<path stroke="#FFFFFF" stroke-width="5" stroke-miterlimit="10" d="M837.981,431.102c-25.921,19.786-57.446,38.54-93.208,54.797
		c7.845-22.32,14.64-46.014,20.143-70.932c5.503-24.919,9.319-49.272,11.604-72.817c3.831-39.032,3.408-75.775-0.813-108.046
		c-9.167-70.223-36.395-119.963-77.295-128.997c104.14,23,182.578,99.669,212.653,194.498l0,0
		C923.688,339.563,894.143,388.014,837.981,431.102z"/>
	<path stroke="#FFFFFF" stroke-width="5" stroke-miterlimit="10" d="M917.7,448.708c-11.313,51.227-35.626,96.251-68.715,132.464
		l0,0c-28.278,30.924-84.926,29.553-150.354,2.401c-30.144-12.489-62.09-30.474-94.001-53.349
		c23.24-4.341,47.172-10.406,71.456-18.055c24.284-7.653,47.274-16.528,68.809-26.349c35.763-16.254,67.267-34.911,93.209-54.795
		c56.16-43.09,85.707-91.539,73.06-131.398l0,0C925.924,346.409,929.014,397.482,917.7,448.708z"/>
	<path stroke="#FFFFFF" stroke-width="5" stroke-miterlimit="10" d="M848.887,581.151
		c-67.216,73.341-170.649,109.845-274.789,86.846c-40.901-9.034-68.126-58.775-77.293-128.996
		c-4.2-32.372-4.646-69.015-0.814-108.047c15.396,17.978,32.611,35.733,51.313,52.875c18.802,17.168,37.955,32.75,57.205,46.474
		c31.91,22.873,63.858,40.861,94,53.347C763.959,610.702,820.63,611.974,848.887,581.151L848.887,581.151z"/>
	<path stroke="#FFFFFF" stroke-width="5" stroke-miterlimit="10" d="M574.098,667.997c-104.139-23-182.578-99.669-212.652-194.498
		l0,0c-12.625-39.958,16.899-88.31,73.06-131.399c25.922-19.783,57.447-38.539,93.209-54.795
		c-7.845,22.319-14.639,46.014-20.143,70.931c-5.502,24.919-9.319,49.272-11.604,72.82c-3.83,39.029-3.408,75.772,0.814,108.044
		C506.071,609.243,533.197,658.963,574.098,667.997z"/>
	<path stroke="#FFFFFF" stroke-width="5" stroke-miterlimit="10" d="M667.981,242.9c-23.24,4.344-47.173,10.405-71.457,18.058
		c-24.283,7.651-47.274,16.524-68.809,26.346c-35.762,16.256-67.265,34.912-93.209,54.795
		c-56.161,43.09-85.706,91.541-73.06,131.399l0,0c-14.784-46.683-17.872-97.758-6.536-149.082
		c11.335-51.326,35.625-96.249,68.715-132.461l0,0c28.277-30.926,84.926-29.556,150.354-2.402
		C604.101,202.139,636.07,220.028,667.981,242.9z"/>
</g>
</svg>
