<?xml version="1.0" encoding="UTF-8" standalone="no"?>
<!-- Created with PhotoLine 20.01 (www.pl32.fr) -->
<!DOCTYPE svg PUBLIC "-//W3C//DTD SVG 1.1//EN" "http://www.w3.org/Graphics/SVG/1.1/DTD/svg11.dtd">
<svg width="1500" height="300" viewBox="0 0 1500 300" version="1.1" xmlns="http://www.w3.org/2000/svg" xmlns:xlink="http://www.w3.org/1999/xlink">
  <g id="Square/Rectangle" transform="matrix(16.776184 0 0.019622 4.576264 203.581588 3.570984)">
    <g transform="matrix(1.283667 0 0 2.560484 -13.081223 -58.729011)">
      <rect fill="#780808" fill-rule="evenodd" x="-12.06" y="-8.81" width="92.62" height="81"/>
    </g>
  </g>
  <g transform="matrix(0.331394 0 0 0.331394 33.914039 -17.335136)">
    <g transform="matrix(1 0 0 1 3.676514 0)">
      <g id="Rounded Square/Rectangle" transform="matrix(1 0 0 1 7.352921 79.30677)">
        <path fill="#ffffff" fill-rule="evenodd" d="M88.76 289.39 L889.18 289.39 C902.31 289.39 915.44 302.52 915.44 315.65 L915.44 525.74 C915.44 538.87 902.31 552 889.18 552 L88.76 552 C75.63 552 62.5 538.87 62.5 525.74 L62.5 315.65 C62.5 302.52 75.63 289.39 88.76 289.39 Z"/>
      </g>
      <g id="Rounded Square/Rectangle" transform="matrix(4.437717 0 0 1 495.152404 79.307006)">
        <g transform="matrix(1 0 0 1 0.000008 -0.000031)">
          <path fill="#ffffff" fill-rule="evenodd" d="M88.76 289.39 L889.18 289.39 C902.31 289.39 915.44 302.52 915.44 315.65 L915.44 525.74 C915.44 538.87 902.31 552 889.18 552 L88.76 552 C75.63 552 62.5 538.87 62.5 525.74 L62.5 315.65 C62.5 302.52 75.63 289.39 88.76 289.39 Z"/>
        </g>
      </g>
      <g id="Polygon" transform="matrix(-0.003118 -0.999995 0.999995 -0.003118 -112.857429 736.208251)">
        <path fill="#780808" fill-rule="evenodd" d="M235.29 293.59 L151.79 411.24 L318.8 411.24 Z"/>
      </g>
      <g id="Polygon" transform="matrix(-0.005922 0.999982 -0.999983 -0.005922 1114.980957 266.448699)">
        <g transform="matrix(1 0 0 1 -0.000031 -0.000122)">
          <path fill="#780808" fill-rule="evenodd" d="M235.29 293.59 L151.79 411.24 L318.8 411.24 Z"/>
        </g>
      </g>
    </g>
    <g transform="matrix(18.17185 0 0 18.171854 22.832138 23.581787)">
      <g id="Rounded Square/Rectangle" transform="matrix(0 -0.05503 0.05503 0 3.107816 53.125507)">
        <path fill="#ffffff" fill-rule="evenodd" d="M88.76 289.39 L889.18 289.39 C902.31 289.39 915.44 302.52 915.44 315.65 L915.44 525.74 C915.44 538.87 902.31 552 889.18 552 L88.76 552 C75.63 552 62.5 538.87 62.5 525.74 L62.5 315.65 C62.5 302.52 75.63 289.39 88.76 289.39 Z"/>
      </g>
      <g id="Circle/Ellipse" transform="matrix(1 0 0 1 14.571131 12.654875)">
        <path fill="#780808" fill-rule="evenodd" d="M5.94 13.56 C5.94 10.39 8.51 7.81 11.69 7.81 C14.86 7.81 17.44 10.39 17.44 13.56 C17.44 16.74 14.86 19.31 11.69 19.31 C8.51 19.31 5.94 16.74 5.94 13.56 Z"/>
      </g>
      <g id="Polygon" transform="matrix(-0.05503 0.000172 -0.000172 -0.05503 39.257221 59.740699)">
        <g transform="matrix(1 0 0 1 -0.000061 0)">
          <path fill="#780808" fill-rule="evenodd" d="M235.29 293.59 L151.79 411.24 L318.8 411.24 Z"/>
        </g>
      </g>
      <g id="Polygon" transform="matrix(0.055029 0.000326 -0.000326 0.055029 13.406264 -7.82743)">
        <path fill="#780808" fill-rule="evenodd" d="M235.29 293.59 L151.79 411.24 L318.8 411.24 Z"/>
      </g>
    </g>
  </g>
  <g transform="matrix(1 0 0 1 372.5 92.112617)">
    <path fill="#780808" d="M129.46 68 C129.46 75.27 125.68 81.32 118.12 86.13 C111.45 90.38 104.27 92.5 96.59 92.5 C87.59 92.5 79.88 89.98 73.47 84.94 C66.55 79.48 63.09 72.37 63.09 63.59 C63.09 54.18 66.25 46.07 72.56 39.24 C79.01 32.25 86.9 28.76 96.25 28.76 C100.78 28.76 106.17 29.94 112.42 32.3 C120.08 35.2 123.91 38.54 123.91 42.3 C123.91 43.13 122.87 43.9 120.8 44.6 C119.3 45.14 117.9 45.47 116.59 45.6 L116.25 45.46 C116.16 45.3 116.01 45.08 115.82 44.79 C113.24 41.02 110.53 38.34 107.69 36.75 C104.69 35.03 100.99 34.17 96.59 34.17 C89.89 34.17 84.62 37.1 80.79 42.97 C77.44 48.04 75.77 54.09 75.77 61.11 C75.77 68.38 77.7 74.44 81.56 79.29 C85.71 84.52 91.32 87.14 98.4 87.14 C109.06 87.14 115.79 83.02 118.6 74.79 C119.39 72.43 119.79 70.25 119.79 68.24 C119.79 66.48 120.57 65.6 122.14 65.6 C122.74 65.6 123.61 65.71 124.72 65.92 C125.84 66.12 126.7 66.23 127.31 66.23 C128.74 66.23 129.46 66.82 129.46 68 Z M206.42 61.54 C206.42 65.11 205.38 68.95 203.31 73.07 C200.53 78.65 196.15 83.18 190.15 86.66 C184.34 90.01 178.24 91.68 171.82 91.68 C162.83 91.68 155.03 88.72 148.42 82.78 C141.6 76.66 138.18 69.15 138.18 60.25 C138.18 50.93 141.49 43.39 148.09 37.61 C154.37 32.09 162.25 29.33 171.73 29.33 C181.04 29.33 189.08 32.35 195.85 38.38 C202.9 44.63 206.42 52.35 206.42 61.54 Z M194.6 61.35 C194.6 54.77 192.5 48.78 188.28 43.35 C183.72 37.58 178.24 34.69 171.82 34.69 C165.51 34.69 160.2 37.34 155.89 42.64 C151.84 47.61 149.81 53.34 149.81 59.81 C149.81 66.45 151.98 72.45 156.32 77.81 C160.95 83.52 166.5 86.37 172.97 86.37 C179.42 86.37 184.71 83.76 188.86 78.52 C192.69 73.68 194.6 67.95 194.6 61.35 Z M284.87 87.42 C284.87 89.43 283.7 90.44 281.37 90.44 C279.68 90.44 278.01 89.75 276.35 88.38 C275.04 87.07 273.73 85.75 272.42 84.41 L230.17 41.82 L230.17 83.74 C230.17 85.78 228.78 87.73 226.01 89.58 C223.46 91.27 221.09 92.11 218.93 92.11 C218.16 92.11 217.65 91.8 217.39 91.16 C217.23 90.74 217.16 89.5 217.16 87.42 L217.2 33.59 C217.2 31.84 217.94 30.37 219.4 29.19 C220.74 28.07 222.32 27.51 224.14 27.51 C225.83 27.51 227.26 28.02 228.42 29.05 C229.59 30.07 230.17 31.41 230.17 33.07 L230.17 35.46 L271.8 77.14 L271.8 36.7 C271.8 34.6 272.92 32.55 275.15 30.58 C277.29 28.63 279.44 27.66 281.61 27.66 C283.78 27.66 284.87 29.35 284.87 32.73 Z M369.32 30 C369.32 30.9 369.13 31.77 368.75 32.63 C368.3 33.72 367.7 34.26 366.93 34.26 C366.48 34.26 365.61 33.81 364.3 32.9 C362.99 31.99 362.11 31.53 361.67 31.53 C360.97 31.53 360.39 32.04 359.94 33.07 L337.74 82.93 C336.91 85 335.59 87.68 333.77 90.97 C333 91.83 332.05 92.26 330.9 92.26 C329.3 92.26 328 91.59 326.97 90.25 C326.62 89.83 325.89 88.49 324.77 86.23 L296.83 30 C296.6 29.59 296.49 29.14 296.49 28.66 C296.49 26.24 298.65 25.03 302.95 25.03 C304.93 25.03 306.1 25.38 306.45 26.08 L334.73 81.97 L357.79 31.29 C358.3 30.15 359.67 28.95 361.91 27.71 C363.25 26.97 364.55 26.61 365.83 26.61 C368.16 26.61 369.32 27.74 369.32 30 Z M418.23 88.14 C418.23 89.61 417.62 90.66 416.41 91.3 C415.61 91.27 414.05 91.16 411.72 90.97 C409.74 90.81 408.16 90.73 406.98 90.73 L369.9 90.73 C368.75 90.73 367.79 90.2 367.03 89.15 C366.29 88.19 365.93 87.12 365.93 85.94 L365.93 35.12 C365.93 33.94 366.3 32.85 367.05 31.85 C367.8 30.84 368.75 30.34 369.9 30.34 L406.98 30.34 C408.16 30.34 409.74 30.26 411.72 30.1 C414.08 29.91 415.64 29.8 416.41 29.76 C417.62 30.4 418.23 31.45 418.23 32.92 C418.23 34.52 417.65 36.16 416.5 37.85 C415.23 39.7 413.84 40.63 412.34 40.63 C411.35 40.63 409.09 40.07 405.55 38.95 C400.89 37.48 395.8 36.75 390.28 36.75 C383.26 36.75 379.61 36.93 379.32 37.3 C379.04 37.67 378.89 38.11 378.89 38.62 L378.89 56.03 C378.89 57.92 380.5 58.86 383.73 58.86 L401.72 58.86 C403.63 58.86 404.59 59.37 404.59 60.39 C404.59 63.71 404.08 65.37 403.06 65.37 C402.04 65.37 400.57 65.09 398.66 64.53 C396.74 63.97 395.27 63.69 394.25 63.69 L382.15 63.69 C379.98 63.69 378.89 64.66 378.89 66.61 L378.89 82.45 C378.89 82.96 379.04 83.4 379.32 83.76 C379.61 84.13 383.26 84.31 390.28 84.31 C395.77 84.31 400.86 83.58 405.55 82.11 C409.12 81.03 411.54 80.49 412.82 80.49 C414.32 80.49 415.63 81.41 416.74 83.26 C417.73 84.89 418.23 86.52 418.23 88.14 Z M492.09 87.42 C492.09 89.43 490.93 90.44 488.6 90.44 C486.91 90.44 485.24 89.75 483.58 88.38 C482.27 87.07 480.96 85.75 479.65 84.41 L437.4 41.82 L437.4 83.74 C437.4 85.78 436.01 87.73 433.24 89.58 C430.68 91.27 428.32 92.11 426.15 92.11 C425.39 92.11 424.88 91.8 424.62 91.16 C424.46 90.74 424.38 89.5 424.38 87.42 L424.43 33.59 C424.43 31.84 425.17 30.37 426.63 29.19 C427.97 28.07 429.55 27.51 431.37 27.51 C433.06 27.51 434.49 28.02 435.65 29.05 C436.82 30.07 437.4 31.41 437.4 33.07 L437.4 35.46 L479.03 77.14 L479.03 36.7 C479.03 34.6 480.15 32.55 482.38 30.58 C484.52 28.63 486.67 27.66 488.84 27.66 C491.01 27.66 492.09 29.35 492.09 32.73 Z M592.44 36.03 C592.44 37.18 591.77 38.07 590.43 38.71 C589.38 39.22 588.21 39.48 586.94 39.48 C585.76 39.48 584.55 38.86 583.32 37.64 C582.1 36.41 581.27 35.79 580.86 35.79 L554.54 35.79 L554.54 83.17 C554.54 85.08 553.7 86.89 552 88.6 C550.31 90.3 548.51 91.16 546.6 91.16 C543.25 91.16 541.57 88.49 541.57 83.17 L541.57 35.79 L514.68 35.79 C513.56 35.79 512.13 36.18 510.37 36.97 C508.62 37.75 507.45 38.14 506.88 38.14 C504.9 38.14 503.91 37.21 503.91 35.36 C503.91 33.7 504.76 32.41 506.45 31.49 C507.85 30.72 509.48 30.34 511.33 30.34 L581.15 30.34 C583.44 30.34 585.72 30.75 587.99 31.58 C590.96 32.7 592.44 34.18 592.44 36.03 Z M606.86 80.53 C606.86 82.64 605.98 84.9 604.23 87.33 C602.34 89.88 600.38 91.16 598.34 91.16 C597.48 91.16 596.65 90.81 595.85 90.1 C594.54 88.92 593.89 86.79 593.89 83.69 L593.89 35.12 C593.89 33.34 594.62 31.85 596.09 30.67 C597.43 29.59 599.01 29.05 600.83 29.05 C602.52 29.05 603.95 29.55 605.11 30.55 C606.28 31.56 606.86 32.91 606.86 34.6 Z M687.23 61.54 C687.23 65.11 686.2 68.95 684.12 73.07 C681.35 78.65 676.96 83.18 670.96 86.66 C665.16 90.01 659.05 91.68 652.64 91.68 C643.64 91.68 635.84 88.72 629.24 82.78 C622.41 76.66 619 69.15 619 60.25 C619 50.93 622.3 43.39 628.9 37.61 C635.19 32.09 643.07 29.33 652.54 29.33 C661.86 29.33 669.89 32.35 676.66 38.38 C683.71 44.63 687.23 52.35 687.23 61.54 Z M675.41 61.35 C675.41 54.77 673.31 48.78 669.1 43.35 C664.54 37.58 659.05 34.69 652.64 34.69 C646.32 34.69 641.01 37.34 636.7 42.64 C632.65 47.61 630.62 53.34 630.62 59.81 C630.62 66.45 632.79 72.45 637.13 77.81 C641.76 83.52 647.31 86.37 653.78 86.37 C660.23 86.37 665.52 83.76 669.67 78.52 C673.5 73.68 675.41 67.95 675.41 61.35 Z M765.68 87.42 C765.68 89.43 764.51 90.44 762.18 90.44 C760.49 90.44 758.82 89.75 757.16 88.38 C755.85 87.07 754.54 85.75 753.24 84.41 L710.98 41.82 L710.98 83.74 C710.98 85.78 709.6 87.73 706.82 89.58 C704.27 91.27 701.91 92.11 699.74 92.11 C698.97 92.11 698.46 91.8 698.21 91.16 C698.05 90.74 697.97 89.5 697.97 87.42 L698.02 33.59 C698.02 31.84 698.75 30.37 700.22 29.19 C701.56 28.07 703.14 27.51 704.95 27.51 C706.64 27.51 708.07 28.02 709.24 29.05 C710.4 30.07 710.98 31.41 710.98 33.07 L710.98 35.46 L752.61 77.14 L752.61 36.7 C752.61 34.6 753.73 32.55 755.96 30.58 C758.1 28.63 760.25 27.66 762.42 27.66 C764.59 27.66 765.68 29.35 765.68 32.73 Z M867.51 81.06 C860.81 88.14 853.34 91.68 845.11 91.68 C836.08 91.68 828.27 88.72 821.66 82.78 C814.84 76.66 811.42 69.15 811.42 60.25 C811.42 50.93 814.73 43.39 821.33 37.61 C827.65 32.09 835.52 29.33 844.97 29.33 C851.51 29.33 856.63 30.48 860.33 32.78 C863.68 34.88 865.35 36.43 865.35 37.42 C865.35 38.79 864.91 39.96 864.04 40.91 C863.16 41.87 862.03 42.35 860.66 42.35 C859.07 42.35 856.79 41.07 853.82 38.52 C850.85 35.97 847.95 34.69 845.11 34.69 C838.76 34.69 833.44 37.34 829.13 42.64 C825.08 47.61 823.05 53.34 823.05 59.81 C823.05 66.45 825.22 72.45 829.56 77.81 C834.19 83.52 839.74 86.37 846.21 86.37 C850.04 86.37 853.68 85.37 857.12 83.36 C856.58 79.85 856.31 76.53 856.31 73.4 C856.31 68.24 857.27 64.36 859.18 61.78 C860.62 59.83 861.94 58.86 863.15 58.86 C864.71 58.86 865.5 60.37 865.5 63.4 C865.5 64.42 865.46 65.96 865.38 68.02 C865.3 70.08 865.26 71.63 865.26 72.69 C865.26 75.78 866.01 78.57 867.51 81.06 Z M927.62 88.14 C927.62 89.61 927.02 90.66 925.8 91.3 C925.01 91.27 923.44 91.16 921.12 90.97 C919.14 90.81 917.56 90.73 916.38 90.73 L879.29 90.73 C878.14 90.73 877.19 90.2 876.42 89.15 C875.69 88.19 875.32 87.12 875.32 85.94 L875.32 35.12 C875.32 33.94 875.7 32.85 876.45 31.85 C877.2 30.84 878.14 30.34 879.29 30.34 L916.38 30.34 C917.56 30.34 919.14 30.26 921.12 30.1 C923.48 29.91 925.04 29.8 925.8 29.76 C927.02 30.4 927.62 31.45 927.62 32.92 C927.62 34.52 927.05 36.16 925.9 37.85 C924.62 39.7 923.24 40.63 921.74 40.63 C920.75 40.63 918.48 40.07 914.94 38.95 C910.29 37.48 905.2 36.75 899.68 36.75 C892.66 36.75 889.01 36.93 888.72 37.3 C888.43 37.67 888.29 38.11 888.29 38.62 L888.29 56.03 C888.29 57.92 889.9 58.86 893.12 58.86 L911.11 58.86 C913.03 58.86 913.99 59.37 913.99 60.39 C913.99 63.71 913.48 65.37 912.45 65.37 C911.43 65.37 909.97 65.09 908.05 64.53 C906.14 63.97 904.67 63.69 903.65 63.69 L891.54 63.69 C889.37 63.69 888.29 64.66 888.29 66.61 L888.29 82.45 C888.29 82.96 888.43 83.4 888.72 83.76 C889.01 84.13 892.66 84.31 899.68 84.31 C905.16 84.31 910.25 83.58 914.94 82.11 C918.52 81.03 920.94 80.49 922.22 80.49 C923.72 80.49 925.02 81.41 926.14 83.26 C927.13 84.89 927.62 86.52 927.62 88.14 Z M986.32 88.14 C986.32 89.61 985.72 90.66 984.5 91.3 C983.71 91.27 982.14 91.16 979.81 90.97 C977.84 90.81 976.26 90.73 975.08 90.73 L937.99 90.73 C936.84 90.73 935.89 90.2 935.12 89.15 C934.39 88.19 934.02 87.12 934.02 85.94 L934.02 35.12 C934.02 33.94 934.39 32.85 935.14 31.85 C935.89 30.84 936.84 30.34 937.99 30.34 L975.08 30.34 C976.26 30.34 977.84 30.26 979.81 30.1 C982.17 29.91 983.74 29.8 984.5 29.76 C985.72 30.4 986.32 31.45 986.32 32.92 C986.32 34.52 985.75 36.16 984.6 37.85 C983.32 39.7 981.93 40.63 980.44 40.63 C979.45 40.63 977.18 40.07 973.64 38.95 C968.98 37.48 963.89 36.75 958.38 36.75 C951.36 36.75 947.7 36.93 947.42 37.3 C947.13 37.67 946.99 38.11 946.99 38.62 L946.99 56.03 C946.99 57.92 948.6 58.86 951.82 58.86 L969.81 58.86 C971.73 58.86 972.68 59.37 972.68 60.39 C972.68 63.71 972.17 65.37 971.15 65.37 C970.13 65.37 968.66 65.09 966.75 64.53 C964.84 63.97 963.37 63.69 962.35 63.69 L950.24 63.69 C948.07 63.69 946.99 64.66 946.99 66.61 L946.99 82.45 C946.99 82.96 947.13 83.4 947.42 83.76 C947.7 84.13 951.36 84.31 958.38 84.31 C963.86 84.31 968.95 83.58 973.64 82.11 C977.21 81.03 979.64 80.49 980.91 80.49 C982.41 80.49 983.72 81.41 984.84 83.26 C985.83 84.89 986.32 86.52 986.32 88.14 Z M1054.54 86.99 C1054.54 88.49 1053.19 89.64 1050.47 90.44 C1048.56 90.98 1046.58 91.25 1044.54 91.25 C1040.07 91.25 1037.12 90.68 1035.69 89.53 L1005.49 65.08 L1005.49 83.17 C1005.49 85.34 1004.27 87.22 1001.81 88.81 C999.61 90.28 997.37 91.01 995.11 91.01 C993.39 91.01 992.53 89.02 992.53 85.03 L992.53 36.65 C992.53 34.87 993.26 33.38 994.73 32.2 C996.07 31.12 997.65 30.58 999.46 30.58 C1001.16 30.58 1002.58 31.07 1003.75 32.06 C1004.91 33.05 1005.49 34.37 1005.49 36.03 L1005.49 58.43 L1038.18 32.44 C1041.53 29.76 1044.25 28.42 1046.36 28.42 C1048.53 28.42 1049.61 29.81 1049.61 32.59 C1049.61 34.79 1049.24 36.25 1048.49 36.97 C1047.74 37.68 1047.16 38.04 1046.74 38.04 C1046.39 38.04 1045.71 37.72 1044.71 37.08 C1043.7 36.45 1042.9 36.13 1042.29 36.13 C1041.49 36.13 1040.62 36.53 1039.66 37.32 L1018.7 54.45 C1018.03 55 1017.7 55.46 1017.7 55.84 C1017.7 56.23 1017.9 56.58 1018.32 56.9 L1050.81 82.54 C1053.3 84.52 1054.54 86.01 1054.54 86.99 Z"/>
  </g>
</svg>
